<?xml version="1.0" encoding="UTF-8"?>
<svg version="1.1" xmlns="http://www.w3.org/2000/svg" width="192" height="192">
<path d="M0 0 C1.69145627 0.31263884 3.37899411 0.64704778 5.0625 1 C15.18632143 2.98784713 25.46837559 2.56592503 35.52734375 0.45703125 C39.28617732 -0.23772946 43.22209406 -0.73196928 47 0 C50.41077292 2.55494164 51.219025 5.93064919 52.5234375 9.87109375 C52.75149078 10.54866226 52.97954407 11.22623077 53.21450806 11.92433167 C53.94310837 14.09267544 54.65982066 16.26469638 55.375 18.4375 C56.9961627 23.32708215 58.63896381 28.20768544 60.3364563 33.0713501 C60.96553446 34.8998228 61.56176101 36.73950158 62.15600586 38.57958984 C64.05958331 44.22119922 64.05958331 44.22119922 67.984375 48.48803711 C70.2513497 49.50424139 72.39942723 50.16746441 74.8125 50.75 C75.99489258 51.09804687 75.99489258 51.09804687 77.20117188 51.453125 C79.1220753 52.01193327 81.05982764 52.51228302 83 53 C83 57.62 83 62.24 83 67 C76.565 67.495 76.565 67.495 70 68 C70.33 68.66 70.66 69.32 71 70 C71.84812173 77.88336099 70.75715476 84.97824431 67 92 C65.09960839 94.23489932 63.52109535 95.4106138 61 97 C60.34 97 59.68 97 59 97 C59 99.31 59 101.62 59 104 C60.051875 103.896875 61.10375 103.79375 62.1875 103.6875 C74.24081292 103.75138682 85.30288377 111.33788909 93.54296875 119.52734375 C104 130.87143148 104 130.87143148 104 136 C96.08 138.31 88.16 140.62 80 143 C85.26986227 144.96964086 85.26986227 144.96964086 90.55883789 146.88671875 C97.64514856 149.6699901 102.03156769 153.93325504 105.35424805 160.79785156 C106.60614692 163.87967858 107.73002659 166.97984552 108.8125 170.125 C109.38387695 171.71248047 109.38387695 171.71248047 109.96679688 173.33203125 C110.99931049 176.21438974 112.00267972 179.10532543 113 182 C113.41636719 183.15242187 113.83273438 184.30484375 114.26171875 185.4921875 C115 188 115 188 115 192 C51.64 192 -11.72 192 -77 192 C-76.32881823 187.30172764 -75.8454677 184.03840357 -74.29296875 179.78515625 C-73.7834668 178.38426758 -73.7834668 178.38426758 -73.26367188 176.95507812 C-72.90853516 176.00052734 -72.55339844 175.04597656 -72.1875 174.0625 C-71.84396484 173.11181641 -71.50042969 172.16113281 -71.14648438 171.18164062 C-64.24728391 152.39976468 -64.24728391 152.39976468 -55.21386719 148.16210938 C-50.85844648 146.28063558 -46.45506485 144.65586481 -42 143 C-49.92 140.69 -57.84 138.38 -66 136 C-63.5395522 126.15820879 -54.97554129 117.88998308 -47 112 C-38.5263757 107.01425641 -30.86609019 103.65978999 -21 104 C-21 101.69 -21 99.38 -21 97 C-21.7425 96.773125 -22.485 96.54625 -23.25 96.3125 C-27.95774866 94.06561996 -29.93600065 90.61343757 -31.75 85.875 C-33.40785656 80.51399647 -34.59185945 73.18371889 -32 68 C-36.29 67.67 -40.58 67.34 -45 67 C-45 62.38 -45 57.76 -45 53 C-43.24623047 52.55914062 -43.24623047 52.55914062 -41.45703125 52.109375 C-39.90811553 51.65878134 -38.35997637 51.20551226 -36.8125 50.75 C-36.04357422 50.564375 -35.27464844 50.37875 -34.48242188 50.1875 C-30.79103832 49.04681495 -28.62791921 47.99604938 -26.53125 44.67016602 C-25.16714277 41.48914373 -24.06375208 38.29392462 -23 35 C-22.54926441 33.68989617 -22.09545961 32.38084509 -21.63891602 31.07275391 C-19.93121281 26.14320233 -18.28243607 21.19440344 -16.65136719 16.23901367 C-15.94981109 14.11369742 -15.23737668 11.99227658 -14.5234375 9.87109375 C-14.11013184 8.62255615 -13.69682617 7.37401855 -13.27099609 6.08764648 C-10.41311153 -0.85504772 -6.8520398 -0.63618634 0 0 Z " fill="#545554" transform="translate(77,0)"/>
<path d="M0 0 C1.69145627 0.31263884 3.37899411 0.64704778 5.0625 1 C15.18632143 2.98784713 25.46837559 2.56592503 35.52734375 0.45703125 C39.28617732 -0.23772946 43.22209406 -0.73196928 47 0 C50.41077292 2.55494164 51.219025 5.93064919 52.5234375 9.87109375 C52.75149078 10.54866226 52.97954407 11.22623077 53.21450806 11.92433167 C53.94310837 14.09267544 54.65982066 16.26469638 55.375 18.4375 C56.9961627 23.32708215 58.63896381 28.20768544 60.3364563 33.0713501 C60.96553446 34.8998228 61.56176101 36.73950158 62.15600586 38.57958984 C64.05958331 44.22119922 64.05958331 44.22119922 67.984375 48.48803711 C70.2513497 49.50424139 72.39942723 50.16746441 74.8125 50.75 C75.60076172 50.98203125 76.38902344 51.2140625 77.20117188 51.453125 C79.1220753 52.01193327 81.05982764 52.51228302 83 53 C83 57.62 83 62.24 83 67 C66.29157175 67.18451025 66.29157175 67.18451025 58 66 C58 67.32 58 68.64 58 70 C56.02 70 54.04 70 52 70 C52 68.68 52 67.36 52 66 C28.24 66 4.48 66 -20 66 C-20 67.32 -20 68.64 -20 70 C-22.64 70.33 -25.28 70.66 -28 71 C-28.08121924 72.60332791 -28.13929134 74.20784026 -28.1875 75.8125 C-28.23970703 77.15248047 -28.23970703 77.15248047 -28.29296875 78.51953125 C-27.94492139 81.46633225 -27.19547287 82.11816611 -25 84 C-24.3125 86.1875 -24.3125 86.1875 -24 88 C-15.00707431 89.98376393 0.61760863 92.64801979 8.89648438 87.91601562 C11.69686129 85.11563871 13.03061639 81.77936903 14 78 C16.3359375 78.22265625 16.3359375 78.22265625 19 79 C20.4765625 80.99609375 20.4765625 80.99609375 21.625 83.4375 C23.23752277 86.8086466 23.78183472 87.85455648 27 90 C29.71378472 90.27625094 29.71378472 90.27625094 32.76171875 90.1953125 C33.87998047 90.18886719 34.99824219 90.18242188 36.15039062 90.17578125 C37.31763672 90.15902344 38.48488281 90.14226562 39.6875 90.125 C40.86634766 90.11597656 42.04519531 90.10695313 43.25976562 90.09765625 C46.17338026 90.07406423 49.08658892 90.0411454 52 90 C52.6188704 96.47235289 50.67213085 100.37912657 47.5 105.9375 C47.07074219 106.71673828 46.64148438 107.49597656 46.19921875 108.29882812 C45.14590069 110.20650417 44.07472631 112.1043022 43 114 C42.01 114 41.02 114 40 114 C39.18457569 111.91780951 38.37276811 109.83420239 37.5625 107.75 C37.11003906 106.58984375 36.65757813 105.4296875 36.19140625 104.234375 C35 101 35 101 34 97 C29.05 96.67 24.1 96.34 19 96 C19 98.97 19 101.94 19 105 C22.96 105 26.92 105 31 105 C28.48571429 111.28571429 28.48571429 111.28571429 26 113 C22.535 113.495 22.535 113.495 19 114 C19 121.92 19 129.84 19 138 C29.44450387 138.11605004 34.91428727 135.84688946 43.1015625 129.93359375 C46 128 46 128 49 128 C47.74290119 132.95959877 46.10312839 136.95310602 43.5625 141.4375 C37.72824343 151.97388954 32.93199391 163.02167617 28 174 C27.34 174 26.68 174 26 174 C22.55580866 164.58997722 22.55580866 164.58997722 23 160 C24.32 159.34 25.64 158.68 27 158 C25.03681826 154.46627288 22.95929119 151.75520215 20 149 C16.63408134 150.44253657 14.48952921 152.33264727 12 155 C13.22007944 157.6905528 13.22007944 157.6905528 15 160 C14.54739783 165.25018518 13.5693582 169.97805377 12 175 C9.42908259 172.69946096 8.07727767 170.45682967 6.6171875 167.34375 C6.17624756 166.41216064 5.73530762 165.48057129 5.28100586 164.52075195 C4.81702393 163.52390381 4.35304199 162.52705566 3.875 161.5 C3.15292358 159.9689563 3.15292358 159.9689563 2.41625977 158.40698242 C1.4244489 156.30299766 0.43528876 154.1977614 -0.55126953 152.09130859 C-2.31930075 148.31867441 -4.10264639 144.55343489 -5.88818359 140.7890625 C-6.65410514 139.17378014 -7.41881173 137.55792096 -8.18212891 135.94140625 C-8.52550293 135.214375 -8.86887695 134.48734375 -9.22265625 133.73828125 C-9.51922119 133.10962158 -9.81578613 132.48096191 -10.12133789 131.83325195 C-10.41129639 131.22827881 -10.70125488 130.62330566 -11 130 C-11.32540771 129.2783667 -11.65081543 128.5567334 -11.98608398 127.81323242 C-12.84955029 125.81085275 -12.84955029 125.81085275 -15 125.25 C-17 124 -17 124 -18.1875 120.5625 C-19.11083263 116.1564215 -19.4515535 111.70858382 -19.75390625 107.22265625 C-19.76239534 105.02927258 -19.76239534 105.02927258 -21 104 C-21.04092937 101.66702567 -21.04241723 99.33294775 -21 97 C-21.7425 96.773125 -22.485 96.54625 -23.25 96.3125 C-27.95774866 94.06561996 -29.93600065 90.61343757 -31.75 85.875 C-33.40785656 80.51399647 -34.59185945 73.18371889 -32 68 C-36.29 67.67 -40.58 67.34 -45 67 C-45 62.38 -45 57.76 -45 53 C-43.24623047 52.55914062 -43.24623047 52.55914062 -41.45703125 52.109375 C-39.90811553 51.65878134 -38.35997637 51.20551226 -36.8125 50.75 C-36.04357422 50.564375 -35.27464844 50.37875 -34.48242188 50.1875 C-30.79103832 49.04681495 -28.62791921 47.99604938 -26.53125 44.67016602 C-25.16714277 41.48914373 -24.06375208 38.29392462 -23 35 C-22.54926441 33.68989617 -22.09545961 32.38084509 -21.63891602 31.07275391 C-19.93121281 26.14320233 -18.28243607 21.19440344 -16.65136719 16.23901367 C-15.94981109 14.11369742 -15.23737668 11.99227658 -14.5234375 9.87109375 C-14.11013184 8.62255615 -13.69682617 7.37401855 -13.27099609 6.08764648 C-10.41311153 -0.85504772 -6.8520398 -0.63618634 0 0 Z " fill="#222222" transform="translate(77,0)"/>
<path d="M0 0 C1.15435547 0.00966797 1.15435547 0.00966797 2.33203125 0.01953125 C4.1875 0.1875 4.1875 0.1875 5.1875 1.1875 C5.41321184 2.59870902 5.58138349 4.01926043 5.72265625 5.44140625 C5.85317383 6.72241211 5.85317383 6.72241211 5.98632812 8.02929688 C6.1168457 9.37604492 6.1168457 9.37604492 6.25 10.75 C6.34087891 11.65169922 6.43175781 12.55339844 6.52539062 13.48242188 C6.75003923 15.71708434 6.97055769 17.95207839 7.1875 20.1875 C7.950625 20.47625 8.71375 20.765 9.5 21.0625 C12.1875 22.1875 12.1875 22.1875 15.1875 24.1875 C14.5275 24.1875 13.8675 24.1875 13.1875 24.1875 C13.4336203 24.69004807 13.6797406 25.19259613 13.93331909 25.71037292 C16.49855663 30.94917216 19.06128014 36.18919568 21.62255859 41.42993164 C22.57829634 43.38467298 23.53467095 45.33910306 24.49169922 47.29321289 C25.86854611 50.10481145 27.24308594 52.91752766 28.6171875 55.73046875 C29.04434052 56.60148727 29.47149353 57.4725058 29.91159058 58.36991882 C31.81087345 62.26312616 33.6675848 66.12590844 35.1875 70.1875 C37.9408493 63.36465041 37.9408493 63.36465041 38.1875 56.1875 C36.79164215 54.37273997 36.79164215 54.37273997 35.1875 53.1875 C36.74250981 49.37065774 39.22345495 46.99554268 42.1875 44.1875 C46.01102106 45.7452308 48.47955593 48.10345258 51.1875 51.1875 C51.1875 52.1775 51.1875 53.1675 51.1875 54.1875 C50.1975 54.8475 49.2075 55.5075 48.1875 56.1875 C48.331875 57.30125 48.47625 58.415 48.625 59.5625 C48.75068359 60.66078125 48.75068359 60.66078125 48.87890625 61.78125 C49.08558268 63.39280293 49.34416902 64.99849256 49.65234375 66.59375 C50.69373123 72.86191084 49.60491831 76.4883524 46.4140625 81.9609375 C44.95868415 84.37837301 44.95868415 84.37837301 44.1875 88.1875 C12.1775 88.1875 -19.8325 88.1875 -52.8125 88.1875 C-52.14131823 83.48922764 -51.6579677 80.22590357 -50.10546875 75.97265625 C-49.5959668 74.57176758 -49.5959668 74.57176758 -49.07617188 73.14257812 C-48.72103516 72.18802734 -48.36589844 71.23347656 -48 70.25 C-47.65646484 69.29931641 -47.31292969 68.34863281 -46.95898438 67.36914062 C-40.05978391 48.58726468 -40.05978391 48.58726468 -31.02636719 44.34960938 C-26.67094648 42.46813558 -22.26756485 40.84336481 -17.8125 39.1875 C-29.6925 35.7225 -29.6925 35.7225 -41.8125 32.1875 C-39.3520522 22.34570879 -30.78804129 14.07748308 -22.8125 8.1875 C-15.8848142 4.11136164 -8.22895834 -0.15420535 0 0 Z " fill="#545554" transform="translate(52.8125,103.8125)"/>
<path d="M0 0 C0 1.32 0 2.64 0 4 C-2.64 4.33 -5.28 4.66 -8 5 C-8.08121924 6.60332791 -8.13929134 8.20784026 -8.1875 9.8125 C-8.22230469 10.70582031 -8.25710937 11.59914063 -8.29296875 12.51953125 C-7.94492139 15.46633225 -7.19547287 16.11816611 -5 18 C-4.3125 20.1875 -4.3125 20.1875 -4 22 C4.99292569 23.98376393 20.61760863 26.64801979 28.89648438 21.91601562 C31.69686129 19.11563871 33.03061639 15.77936903 34 12 C36.3359375 12.22265625 36.3359375 12.22265625 39 13 C40.4765625 14.99609375 40.4765625 14.99609375 41.625 17.4375 C43.23752277 20.8086466 43.78183472 21.85455648 47 24 C49.71378472 24.27625094 49.71378472 24.27625094 52.76171875 24.1953125 C53.87998047 24.18886719 54.99824219 24.18242188 56.15039062 24.17578125 C57.31763672 24.15902344 58.48488281 24.14226562 59.6875 24.125 C60.86634766 24.11597656 62.04519531 24.10695313 63.25976562 24.09765625 C66.17338026 24.07406423 69.08658892 24.0411454 72 24 C72.6188704 30.47235289 70.67213085 34.37912657 67.5 39.9375 C67.07074219 40.71673828 66.64148438 41.49597656 66.19921875 42.29882812 C65.14590069 44.20650417 64.07472631 46.1043022 63 48 C62.01 48 61.02 48 60 48 C59.18457569 45.91780951 58.37276811 43.83420239 57.5625 41.75 C57.11003906 40.58984375 56.65757813 39.4296875 56.19140625 38.234375 C55 35 55 35 54 31 C49.05 30.67 44.1 30.34 39 30 C39 32.97 39 35.94 39 39 C42.96 39 46.92 39 51 39 C48.48571429 45.28571429 48.48571429 45.28571429 46 47 C42.535 47.495 42.535 47.495 39 48 C39 55.92 39 63.84 39 72 C49.44450387 72.11605004 54.91428727 69.84688946 63.1015625 63.93359375 C66 62 66 62 69 62 C67.74290119 66.95959877 66.10312839 70.95310602 63.5625 75.4375 C57.72824343 85.97388954 52.93199391 97.02167617 48 108 C47.34 108 46.68 108 46 108 C42.55580866 98.58997722 42.55580866 98.58997722 43 94 C44.98 93.01 44.98 93.01 47 92 C45.03681826 88.46627288 42.95929119 85.75520215 40 83 C36.63408134 84.44253657 34.48952921 86.33264727 32 89 C33.22007944 91.6905528 33.22007944 91.6905528 35 94 C34.54739783 99.25018518 33.5693582 103.97805377 32 109 C29.42908259 106.69946096 28.07727767 104.45682967 26.6171875 101.34375 C26.17624756 100.41216064 25.73530762 99.48057129 25.28100586 98.52075195 C24.81702393 97.52390381 24.35304199 96.52705566 23.875 95.5 C23.39361572 94.4793042 22.91223145 93.4586084 22.41625977 92.40698242 C21.4244489 90.30299766 20.43528876 88.1977614 19.44873047 86.09130859 C17.68069925 82.31867441 15.89735361 78.55343489 14.11181641 74.7890625 C13.34589486 73.17378014 12.58118827 71.55792096 11.81787109 69.94140625 C11.47449707 69.214375 11.13112305 68.48734375 10.77734375 67.73828125 C10.33249634 66.79529175 10.33249634 66.79529175 9.87866211 65.83325195 C9.58870361 65.22827881 9.29874512 64.62330566 9 64 C8.67459229 63.2783667 8.34918457 62.5567334 8.01391602 61.81323242 C7.15044971 59.81085275 7.15044971 59.81085275 5 59.25 C3 58 3 58 1.8125 54.5625 C0.88916737 50.1564215 0.5484465 45.70858382 0.24609375 41.22265625 C0.23760466 39.02927258 0.23760466 39.02927258 -1 38 C-1.04092937 35.66702567 -1.04241723 33.33294775 -1 31 C-1.7425 30.773125 -2.485 30.54625 -3.25 30.3125 C-7.95774866 28.06561996 -9.93600065 24.61343757 -11.75 19.875 C-13.34550945 14.61246332 -13.76366074 9.45218251 -13 4 C-10.16924131 -1.29228798 -5.34004969 -0.41077305 0 0 Z " fill="#743B29" transform="translate(57,66)"/>
<path d="M0 0 C23.76 0 47.52 0 72 0 C72 1.32 72 2.64 72 4 C73.98 4 75.96 4 78 4 C78 2.68 78 1.36 78 0 C85.82484076 -0.60191083 85.82484076 -0.60191083 89.5625 1.3125 C92.39535659 6.60871015 91.6318781 12.28434411 90.3046875 17.98828125 C88.36567688 24.00899071 86.38588188 27.60455273 81 31 C80.34 31 79.68 31 79 31 C79 33.31 79 35.62 79 38 C78.34 38 77.68 38 77 38 C76.92652344 39.66289063 76.92652344 39.66289063 76.8515625 41.359375 C76.77650785 42.82294065 76.70096119 44.28648112 76.625 45.75 C76.5940625 46.47960937 76.563125 47.20921875 76.53125 47.9609375 C76.32144034 51.807448 76.0460037 54.72270608 74 58 C72.39941406 59.30859375 72.39941406 59.30859375 70.515625 60.4375 C69.82726562 60.85773438 69.13890625 61.27796875 68.4296875 61.7109375 C67.71039063 62.13632813 66.99109375 62.56171875 66.25 63 C64.83806004 63.8533703 63.42659442 64.70752596 62.015625 65.5625 C60.98622803 66.17399902 60.98622803 66.17399902 59.93603516 66.79785156 C58.20275072 67.87410535 56.55072202 69.0787031 54.9140625 70.296875 C49.80796436 73.28113611 44.79190517 72.23640429 39 72 C39 64.08 39 56.16 39 48 C41.64 47.01 44.28 46.02 47 45 C49.51013441 41.99021134 49.51013441 41.99021134 51 39 C47.04 39 43.08 39 39 39 C39 36.03 39 33.06 39 30 C43.95 30 48.9 30 54 30 C56.49149886 35.97959726 58.59533727 41.67901771 60 48 C63.7854464 46.73818453 64.32215868 45.00700065 66.05859375 41.56640625 C66.41050781 40.84324219 66.76242188 40.12007812 67.125 39.375 C67.48464844 38.67503906 67.84429687 37.97507813 68.21484375 37.25390625 C70.43012683 32.78185538 71.5691223 28.97467891 72 24 C70.515 24.495 70.515 24.495 69 25 C65.37980511 25.28095068 61.75489466 25.27746241 58.125 25.3125 C56.63419922 25.35600586 56.63419922 25.35600586 55.11328125 25.40039062 C47.80703175 25.46396575 47.80703175 25.46396575 43.94921875 23.24609375 C42.1068142 21.12308249 40.83711189 19.3046931 39.6875 16.75 C39.36136719 16.04359375 39.03523438 15.3371875 38.69921875 14.609375 C38.35310547 13.81273438 38.35310547 13.81273438 38 13 C36.68 13 35.36 13 34 13 C32.22548251 15.17191595 32.22548251 15.17191595 30.8125 17.9375 C28 23 28 23 27 24 C22.77716637 24.25505898 18.54211293 24.18523696 14.3125 24.1875 C13.12720703 24.19974609 11.94191406 24.21199219 10.72070312 24.22460938 C8.9969043 24.22750977 8.9969043 24.22750977 7.23828125 24.23046875 C6.18680908 24.23457764 5.13533691 24.23868652 4.05200195 24.24291992 C0.72034447 23.9777412 -1.92583207 23.30577453 -5 22 C-6.25 19.5 -6.25 19.5 -7 17 C-7.66 16.34 -8.32 15.68 -9 15 C-9.23046875 12.65234375 -9.23046875 12.65234375 -9.1875 9.9375 C-9.18105469 9.03902344 -9.17460938 8.14054687 -9.16796875 7.21484375 C-9 5 -9 5 -8 4 C-5.32941149 3.85884839 -2.67567762 3.95752893 0 4 C0 2.68 0 1.36 0 0 Z " fill="#252424" transform="translate(57,66)"/>
<path d="M0 0 C4.18947983 0.10011625 8.08215308 0.50258257 12.1875 1.36328125 C22.31132143 3.35112838 32.59337559 2.92920628 42.65234375 0.8203125 C46.41117732 0.12555179 50.34709406 -0.36868803 54.125 0.36328125 C63.22933352 9.46761477 64.05341827 24.14853606 68.125 36.36328125 C40.405 36.36328125 12.685 36.36328125 -15.875 36.36328125 C-4.01308463 0.77753515 -4.01308463 0.77753515 0 0 Z " fill="#212121" transform="translate(69.875,-0.36328125)"/>
<path d="M0 0 C6.67035355 -0.31575638 11.49664954 0.40723634 17.625 3 C18.3365625 3.26683594 19.048125 3.53367188 19.78125 3.80859375 C26.66569136 6.64558881 31.10666779 11.09474674 34.35644531 17.79785156 C35.60623007 20.87999006 36.73018855 23.9803161 37.8125 27.125 C38.19341797 28.18332031 38.57433594 29.24164063 38.96679688 30.33203125 C39.99931049 33.21438974 41.00267972 36.10532543 42 39 C42.41636719 40.15242188 42.83273438 41.30484375 43.26171875 42.4921875 C44 45 44 45 44 49 C17.6 49 -8.8 49 -36 49 C-33.23290286 46.23290286 -31.1481553 44.26331528 -28.015625 42.15234375 C-27.2527417 41.63470459 -26.4898584 41.11706543 -25.70385742 40.58374023 C-24.89408447 40.04048096 -24.08431152 39.49722168 -23.25 38.9375 C-21.54281573 37.78147594 -19.83578717 36.62522191 -18.12890625 35.46875 C-17.27184082 34.88996094 -16.41477539 34.31117188 -15.53173828 33.71484375 C-11.73567138 31.14362158 -7.96138466 28.54112185 -4.1875 25.9375 C0.18498477 22.92189812 4.5731847 19.93539207 9 17 C8.27590746 12.04628754 4.8634136 9.01963101 1.71484375 5.33984375 C0 3 0 3 0 0 Z " fill="#212121" transform="translate(148,143)"/>
<path d="M0 0 C0 5.58338708 -2.74971685 7.52788761 -6.34765625 11.5625 C-8.15603716 13.7919091 -8.15603716 13.7919091 -8.14453125 16.03515625 C-6.36008619 19.09855512 -3.56651934 20.61210366 -0.625 22.4375 C0.74184299 23.31622062 2.10767952 24.19650819 3.47265625 25.078125 C4.20371582 25.54669922 4.93477539 26.01527344 5.68798828 26.49804688 C9.77865266 29.15546686 13.79271076 31.92451634 17.8125 34.6875 C18.61969482 35.24139404 19.42688965 35.79528809 20.25854492 36.3659668 C21.80728949 37.42930536 23.35557019 38.49331995 24.90332031 39.55810547 C26.20645445 40.45427573 27.51035122 41.34933939 28.81542969 42.24267578 C30.27505633 43.2418092 31.73147207 44.24562946 33.1875 45.25 C34.32251953 46.03117187 34.32251953 46.03117187 35.48046875 46.828125 C35.98191406 47.21484375 36.48335938 47.6015625 37 48 C37 48.33 37 48.66 37 49 C10.6 49 -15.8 49 -43 49 C-42.32881823 44.30172764 -41.8454677 41.03840357 -40.29296875 36.78515625 C-39.95330078 35.85123047 -39.61363281 34.91730469 -39.26367188 33.95507812 C-38.90853516 33.00052734 -38.55339844 32.04597656 -38.1875 31.0625 C-37.84396484 30.11181641 -37.50042969 29.16113281 -37.14648438 28.18164062 C-33.25456581 17.58656776 -30.03891482 9.41755775 -19.4921875 4.296875 C-18.18656666 3.7296402 -16.87655898 3.17240304 -15.5625 2.625 C-14.94205811 2.36187012 -14.32161621 2.09874023 -13.68237305 1.82763672 C-8.88961057 -0.03729532 -5.04710385 -0.23474902 0 0 Z " fill="#212121" transform="translate(43,143)"/>
<path d="M0 0 C0.33 0 0.66 0 1 0 C1.495 10.395 1.495 10.395 2 21 C1.34 21 0.68 21 0 21 C-0.04898438 22.10859375 -0.09796875 23.2171875 -0.1484375 24.359375 C-0.22349215 25.82294065 -0.29903881 27.28648112 -0.375 28.75 C-0.42140625 29.84441406 -0.42140625 29.84441406 -0.46875 30.9609375 C-0.67855966 34.807448 -0.9539963 37.72270608 -3 41 C-4.60058594 42.30859375 -4.60058594 42.30859375 -6.484375 43.4375 C-7.17273438 43.85773438 -7.86109375 44.27796875 -8.5703125 44.7109375 C-9.28960937 45.13632813 -10.00890625 45.56171875 -10.75 46 C-12.16193996 46.8533703 -13.57340558 47.70752596 -14.984375 48.5625 C-15.67063965 48.97016602 -16.3569043 49.37783203 -17.06396484 49.79785156 C-18.79724928 50.87410535 -20.44927798 52.0787031 -22.0859375 53.296875 C-27.19203564 56.28113611 -32.20809483 55.23640429 -38 55 C-38 47.08 -38 39.16 -38 31 C-34.04 29.515 -34.04 29.515 -30 28 C-27.48986559 24.99021134 -27.48986559 24.99021134 -26 22 C-29.96 22 -33.92 22 -38 22 C-38 19.03 -38 16.06 -38 13 C-33.05 13 -28.1 13 -23 13 C-20.50850114 18.97959726 -18.40466273 24.67901771 -17 31 C-13.2145536 29.73818453 -12.67784132 28.00700065 -10.94140625 24.56640625 C-10.41353516 23.48166016 -10.41353516 23.48166016 -9.875 22.375 C-9.51535156 21.67503906 -9.15570313 20.97507812 -8.78515625 20.25390625 C-7.09506329 16.84207065 -5.82827484 13.84692164 -5.3828125 10.046875 C-5.25648438 9.04140625 -5.13015625 8.0359375 -5 7 C-3 5.875 -3 5.875 -1 5 C-0.18828772 2.44480079 -0.18828772 2.44480079 0 0 Z " fill="#5E1A04" transform="translate(134,83)"/>
<path d="M0 0 C2.77422328 0.40645597 4.0926663 1.07378983 6.3203125 2.84765625 C16.32494659 10.7482517 27.64797102 10.78337945 40.0078125 9.55517578 C45.81245463 8.47817218 50.09183268 5.69805671 54.55859375 1.96875 C57 0 57 0 60 0 C58.74290119 4.95959877 57.10312839 8.95310602 54.5625 13.4375 C48.72824343 23.97388954 43.93199391 35.02167617 39 46 C38.34 46 37.68 46 37 46 C33.55580866 36.58997722 33.55580866 36.58997722 34 32 C35.32 31.34 36.64 30.68 38 30 C36.03681826 26.46627288 33.95929119 23.75520215 31 21 C27.63408134 22.44253657 25.48952921 24.33264727 23 27 C24.22007944 29.6905528 24.22007944 29.6905528 26 32 C25.54739783 37.25018518 24.5693582 41.97805377 23 47 C20.42908259 44.69946096 19.07727767 42.45682967 17.6171875 39.34375 C17.17608643 38.41199951 16.73498535 37.48024902 16.28051758 36.52026367 C15.58478638 35.02523315 15.58478638 35.02523315 14.875 33.5 C14.39506592 32.48075439 13.91513184 31.46150879 13.4206543 30.41137695 C12.43066375 28.30868866 11.44296856 26.20491821 10.45751953 24.10009766 C9.07876448 21.16752955 7.68247161 18.24422593 6.27734375 15.32421875 C5.86049316 14.45539063 5.44364258 13.5865625 5.01416016 12.69140625 C4.22566877 11.04842216 3.43504867 9.40645762 2.64208984 7.765625 C0 2.22587697 0 2.22587697 0 0 Z " fill="#FAF9F9" transform="translate(66,128)"/>
<path d="M0 0 C27.72 0 55.44 0 84 0 C88 10 88 10 88 12 C57.97 12 27.94 12 -3 12 C-2 5 -2 5 0 0 Z " fill="#EAEAEA" transform="translate(54,36)"/>
<path d="M0 0 C2.3359375 0.22265625 2.3359375 0.22265625 5 1 C6.4765625 2.99609375 6.4765625 2.99609375 7.625 5.4375 C9.23752277 8.8086466 9.78183472 9.85455648 13 12 C15.71378472 12.27625094 15.71378472 12.27625094 18.76171875 12.1953125 C19.87998047 12.18886719 20.99824219 12.18242188 22.15039062 12.17578125 C23.31763672 12.15902344 24.48488281 12.14226562 25.6875 12.125 C26.86634766 12.11597656 28.04519531 12.10695313 29.25976562 12.09765625 C32.17338026 12.07406423 35.08658892 12.0411454 38 12 C38.6188704 18.47235289 36.67213085 22.37912657 33.5 27.9375 C33.07074219 28.71673828 32.64148438 29.49597656 32.19921875 30.29882812 C31.14590069 32.20650417 30.07472631 34.1043022 29 36 C28.01 36 27.02 36 26 36 C25.18457569 33.91780951 24.37276811 31.83420239 23.5625 29.75 C22.88380859 28.00976562 22.88380859 28.00976562 22.19140625 26.234375 C21 23 21 23 20 19 C9.77 18.67 -0.46 18.34 -11 18 C-11.66 20.97 -12.32 23.94 -13 27 C-13.50777158 28.69800679 -14.04070202 30.38928307 -14.625 32.0625 C-14.88539062 32.81660156 -15.14578125 33.57070312 -15.4140625 34.34765625 C-15.60742188 34.89292969 -15.80078125 35.43820313 -16 36 C-19.65169353 35.43581239 -19.65169353 35.43581239 -21.18847656 33.51293945 C-21.50268555 32.88605225 -21.81689453 32.25916504 -22.140625 31.61328125 C-22.48867187 30.92169922 -22.83671875 30.23011719 -23.1953125 29.51757812 C-23.71738281 28.42606445 -23.71738281 28.42606445 -24.25 27.3125 C-24.79527344 26.24999023 -24.79527344 26.24999023 -25.3515625 25.16601562 C-27.42497377 20.94514269 -28.45431814 17.80820028 -28 13 C-27.44538086 12.9906543 -26.89076172 12.98130859 -26.31933594 12.97167969 C-23.79533519 12.91784278 -21.27316186 12.83422746 -18.75 12.75 C-17.87730469 12.73582031 -17.00460938 12.72164062 -16.10546875 12.70703125 C-10.98695839 12.55949986 -10.98695839 12.55949986 -6.5625 10.21875 C-5.06197594 8.08800584 -3.59102127 5.98503545 -2.25 3.75 C-1.82203125 3.04359375 -1.3940625 2.3371875 -0.953125 1.609375 C-0.63859375 1.07828125 -0.3240625 0.5471875 0 0 Z " fill="#F9E5E8" transform="translate(91,78)"/>
<path d="M0 0 C13.53 0 27.06 0 41 0 C41 3.63 41 7.26 41 11 C26.15 11 11.3 11 -4 11 C-3.67 8.69 -3.34 6.38 -3 4 C-2.34 4 -1.68 4 -1 4 C-0.67 2.68 -0.34 1.36 0 0 Z " fill="#FCFCFC" transform="translate(55,37)"/>
<path d="M0 0 C3.82352106 1.5577308 6.29205593 3.91595258 9 7 C9 7.99 9 8.98 9 10 C8.01 10.66 7.02 11.32 6 12 C6.144375 13.11375 6.28875 14.2275 6.4375 15.375 C6.56125 16.47908203 6.56125 16.47908203 6.6875 17.60546875 C6.96531221 19.99582141 6.96531221 19.99582141 7.5 22.30078125 C8.97021184 30.32131192 5.77268027 36.02327533 2 43 C1.34 43 0.68 43 0 43 C-1.01680643 40.98757061 -2.01273789 38.9645868 -3 36.9375 C-3.556875 35.81214844 -4.11375 34.68679687 -4.6875 33.52734375 C-6.96471631 27.40732491 -6.08366274 22.99053037 -4 17 C-3.58219121 14.37305578 -3.58219121 14.37305578 -4 12 C-5.39585785 10.18523997 -5.39585785 10.18523997 -7 9 C-5.44499019 5.18315774 -2.96404505 2.80804268 0 0 Z " fill="#242424" transform="translate(95,148)"/>
<path d="M0 0 C-1.38603845 4.46194511 -3.13546355 8.55855999 -5.1875 12.75390625 C-5.49067139 13.3772435 -5.79384277 14.00058075 -6.10620117 14.64280701 C-7.06732136 16.61775746 -8.03331832 18.59026658 -9 20.5625 C-9.96598953 22.53862893 -10.93087877 24.51527816 -11.89379883 26.49290466 C-12.7667088 28.2849015 -13.64302634 30.07523729 -14.51953125 31.86547852 C-15.78664961 34.54828402 -16.9372061 37.23122748 -18 40 C-18.66 40 -19.32 40 -20 40 C-23.44419134 30.58997722 -23.44419134 30.58997722 -23 26 C-21.68 25.34 -20.36 24.68 -19 24 C-20.98768883 20.44282787 -20.98768883 20.44282787 -23.75 17.5 C-25 16 -25 16 -24.88061523 13.5871582 C-24 11 -24 11 -21.89868164 9.42260742 C-20.54311157 8.77062378 -20.54311157 8.77062378 -19.16015625 8.10546875 C-17.6896582 7.38520508 -17.6896582 7.38520508 -16.18945312 6.65039062 C-15.15755859 6.16763672 -14.12566406 5.68488281 -13.0625 5.1875 C-12.03447266 4.68541016 -11.00644531 4.18332031 -9.94726562 3.66601562 C-2.35088223 0 -2.35088223 0 0 0 Z " fill="#FBF9F9" transform="translate(123,134)"/>
<path d="M0 0 C1.66348105 2.21797473 3.31063887 4.44955812 4.88671875 6.73046875 C9.83413101 10.33705159 14.86683609 9.52900877 20.8125 9.3125 C21.98232422 9.28994141 23.15214844 9.26738281 24.35742188 9.24414062 C27.23958769 9.18532091 30.11913681 9.10317141 33 9 C33.6188704 15.47235289 31.67213085 19.37912657 28.5 24.9375 C28.07074219 25.71673828 27.64148438 26.49597656 27.19921875 27.29882812 C26.14590069 29.20650417 25.07472631 31.1043022 24 33 C23.01 33 22.02 33 21 33 C20.18457569 30.91780951 19.37276811 28.83420239 18.5625 26.75 C17.88380859 25.00976562 17.88380859 25.00976562 17.19140625 23.234375 C16 20 16 20 15 16 C10.05 15.67 5.1 15.34 0 15 C0 10.05 0 5.1 0 0 Z " fill="#F9C7CB" transform="translate(96,81)"/>
<path d="M0 0 C7.82484076 -0.60191083 7.82484076 -0.60191083 11.5625 1.3125 C14.39535659 6.60871015 13.6318781 12.28434411 12.3046875 17.98828125 C10.35661419 24.03713071 8.38065649 27.56553841 3 31 C2.01 31.33 1.02 31.66 0 32 C0 26.72 0 21.44 0 16 C0.99 15.67 1.98 15.34 3 15 C3 11.7 3 8.4 3 5 C2.01 5 1.02 5 0 5 C0 3.35 0 1.7 0 0 Z " fill="#FBC9CE" transform="translate(135,66)"/>
<path d="M0 0 C2.77422328 0.40645597 4.0926663 1.07378983 6.3203125 2.84765625 C16.32494659 10.7482517 27.64797102 10.78337945 40.0078125 9.55517578 C45.81245463 8.47817218 50.09183268 5.69805671 54.55859375 1.96875 C57 0 57 0 60 0 C59.34 2.31 58.68 4.62 58 7 C57.27385498 7.12004395 56.54770996 7.24008789 55.79956055 7.36376953 C51.12828744 8.42536696 47.07054088 10.72926348 42.8125 12.875 C41.89791016 13.32230469 40.98332031 13.76960937 40.04101562 14.23046875 C39.16767578 14.66746094 38.29433594 15.10445312 37.39453125 15.5546875 C36.59893799 15.95155762 35.80334473 16.34842773 34.98364258 16.75732422 C32.70715306 17.99442202 32.70715306 17.99442202 31 21 C30.01 21 29.02 21 28 21 C27.67 20.01 27.34 19.02 27 18 C25.0886877 16.68975277 25.0886877 16.68975277 22.703125 15.58984375 C21.8265625 15.15736328 20.95 14.72488281 20.046875 14.27929688 C19.12390625 13.83650391 18.2009375 13.39371094 17.25 12.9375 C16.3425 12.49083984 15.435 12.04417969 14.5 11.58398438 C9.47823864 9.11157531 9.47823864 9.11157531 4.28027344 7.05297852 C2 6 2 6 0.6875 2.875 C0.460625 1.92625 0.23375 0.9775 0 0 Z " fill="#E8A9A1" transform="translate(66,128)"/>
<path d="M0 0 C21.78 0 43.56 0 66 0 C66 0.99 66 1.98 66 3 C44.10802663 4.35314626 21.86347018 5.14799005 0 3 C0 2.01 0 1.02 0 0 Z " fill="#E9CACE" transform="translate(63,66)"/>
<path d="M0 0 C0 1.32 0 2.64 0 4 C-2.64 4.33 -5.28 4.66 -8 5 C-8.08121924 6.60332791 -8.13929134 8.20784026 -8.1875 9.8125 C-8.22230469 10.70582031 -8.25710937 11.59914063 -8.29296875 12.51953125 C-7.94369783 15.4766917 -7.19527806 16.10332399 -5 18 C-4.67 18.86625 -4.34 19.7325 -4 20.625 C-3.67 21.40875 -3.34 22.1925 -3 23 C-2.01 23.33 -1.02 23.66 0 24 C0 26.64 0 29.28 0 32 C-5.3447299 29.69204845 -8.40532378 27.39467556 -10.91015625 22.0625 C-13.17937899 16.15196636 -13.88042227 10.28580551 -13 4 C-10.16924131 -1.29228798 -5.34004969 -0.41077305 0 0 Z " fill="#F4E1E4" transform="translate(57,66)"/>
<path d="M0 0 C7.92 0 15.84 0 24 0 C21.64705882 5.88235294 21.64705882 5.88235294 19 8 C14.34036597 9.55321134 9.88619085 9.50298423 5.1875 8.25 C2.65905497 6.80517427 1.44929383 5.51719455 0 3 C0 2.01 0 1.02 0 0 Z " fill="#F8C6C9" transform="translate(84,105)"/>
<path d="M0 0 C1.26328125 0.01804687 2.5265625 0.03609375 3.828125 0.0546875 C4.79234375 0.07789062 5.7565625 0.10109375 6.75 0.125 C2.94695186 5.31710472 -1.01158542 10.28109762 -5.25 15.125 C-8.25 14.125 -8.25 14.125 -9.9375 12 C-11.524286 8.52418304 -11.4722986 5.90407627 -11.25 2.125 C-7.54583874 -0.25090142 -4.32015427 -0.08000286 0 0 Z " fill="#505150" transform="translate(111.25,71.875)"/>
<path d="M0 0 C4.01205288 0.61575872 6.64482191 2.72076671 9.9375 5 C16.4183747 9.27388422 22.20370852 10.20415821 30 10 C30.33 12.97 30.66 15.94 31 19 C30.34 19 29.68 19 29 19 C28.67 19.66 28.34 20.32 28 21 C27.67 20.01 27.34 19.02 27 18 C25.0886877 16.68975277 25.0886877 16.68975277 22.703125 15.58984375 C21.8265625 15.15736328 20.95 14.72488281 20.046875 14.27929688 C19.12390625 13.83650391 18.2009375 13.39371094 17.25 12.9375 C16.3425 12.49083984 15.435 12.04417969 14.5 11.58398438 C9.47823864 9.11157531 9.47823864 9.11157531 4.28027344 7.05297852 C2 6 2 6 0.6875 2.875 C0.460625 1.92625 0.23375 0.9775 0 0 Z " fill="#FBCCD1" transform="translate(66,128)"/>
<path d="M0 0 C1.77503906 0.03480469 1.77503906 0.03480469 3.5859375 0.0703125 C5.36871094 0.09738281 5.36871094 0.09738281 7.1875 0.125 C8.10273437 0.14820312 9.01796875 0.17140625 9.9609375 0.1953125 C6.76266765 5.31254426 3.00259563 9.72224142 -1.0390625 14.1953125 C-2.0290625 13.8653125 -3.0190625 13.5353125 -4.0390625 13.1953125 C-5.34671728 9.27234817 -5.2362042 6.33528817 -5.0390625 2.1953125 C-3.0390625 0.1953125 -3.0390625 0.1953125 0 0 Z " fill="#505150" transform="translate(60.0390625,71.8046875)"/>
<path d="M0 0 C2.5625 2 2.5625 2 5 5 C4.91480338 10.28219037 3.5691186 14.97882046 2 20 C-1.09011944 17.41734886 -2.21627918 14.51043341 -3.6875 10.8125 C-4.12449219 9.72582031 -4.56148438 8.63914063 -5.01171875 7.51953125 C-5.33785156 6.68808594 -5.66398437 5.85664063 -6 5 C-5.38125 4.731875 -4.7625 4.46375 -4.125 4.1875 C-1.7004767 3.04443152 -1.7004767 3.04443152 0 0 Z " fill="#D6D6D6" transform="translate(87,155)"/>
<path d="M0 0 C0.8971875 0.928125 0.8971875 0.928125 1.8125 1.875 C4.00811144 4.13676954 4.00811144 4.13676954 7 6 C5.02 10.29 3.04 14.58 1 19 C0.34 19 -0.32 19 -1 19 C-4.44419134 9.58997722 -4.44419134 9.58997722 -4 5 C-2.68 4.34 -1.36 3.68 0 3 C0 2.01 0 1.02 0 0 Z " fill="#DCDCDC" transform="translate(104,155)"/>
<path d="M0 0 C3.96 0 7.92 0 12 0 C12.33 0.66 12.66 1.32 13 2 C11.95199219 2.48919922 11.95199219 2.48919922 10.8828125 2.98828125 C9.51769531 3.64376953 9.51769531 3.64376953 8.125 4.3125 C7.22007813 4.74175781 6.31515625 5.17101562 5.3828125 5.61328125 C2.73550524 6.9199388 2.73550524 6.9199388 1 10 C0.34 9.34 -0.32 8.68 -1 8 C-0.67 7.67 -0.34 7.34 0 7 C0.04092937 4.66702567 0.04241723 2.33294775 0 0 Z " fill="#F1B4AD" transform="translate(96,139)"/>
<path d="M0 0 C4.11526292 0.64173654 7.30388435 2.86986158 10.75 5.0625 C11.35199219 5.43955078 11.95398438 5.81660156 12.57421875 6.20507812 C14.05249143 7.13193163 15.52666089 8.06532389 17 9 C16.67 9.66 16.34 10.32 16 11 C10.37011268 10.29626408 4.90740418 8.02661694 1 3.875 C0 2 0 2 0 0 Z " fill="#F4C4C8" transform="translate(66,128)"/>
<path d="M0 0 C1.98 0 3.96 0 6 0 C6 1.32 6 2.64 6 4 C4.02 4 2.04 4 0 4 C0 2.68 0 1.36 0 0 Z " fill="#5C1E0A" transform="translate(129,66)"/>
<path d="M0 0 C0.66 0.33 1.32 0.66 2 1 C0.47291037 4.43595166 -1.59927045 7.11912454 -4 10 C-4 8.35 -4 6.7 -4 5 C-2.68 4.34 -1.36 3.68 0 3 C0 2.01 0 1.02 0 0 Z " fill="#BEBEBE" transform="translate(104,155)"/>
<path d="M0 0 C1.98 0 3.96 0 6 0 C6 0.99 6 1.98 6 3 C4.02 3 2.04 3 0 3 C0 2.01 0 1.02 0 0 Z " fill="#723B2A" transform="translate(57,66)"/>
</svg>
